<svg version="1.0" xmlns="http://www.w3.org/2000/svg"
     viewBox="0 0 500.000000 500.000000">

    <g transform="translate(-235.000000,710.000000) scale(0.150000, -0.150000)"
       fill="#FF0000" stroke="none">
        <path d="M3060 4754 c-14 -2 -55 -9 -92 -15 l-68 -11 0 -533 0 -534 36 -30 37
-30 276 142 c152 78 321 165 376 193 55 28 165 85 245 126 520 266 472 239
453 260 -17 19 -189 142 -278 199 -22 15 -83 47 -135 71 -233 111 -426 158
-670 163 -85 2 -166 2 -180 -1z"/>
        <path d="M2445 4568 c-27 -18 -75 -48 -105 -67 -179 -114 -384 -330 -490 -516
-162 -282 -241 -626 -211 -913 30 -282 111 -516 260 -747 22 -35 96 -131 111
-145 3 -3 15 -18 27 -33 97 -126 271 -287 398 -369 86 -55 160 -98 168 -98 4
0 7 640 7 1423 l0 1422 -46 38 c-26 20 -52 37 -58 37 -6 0 -33 -15 -61 -32z"/>
        <path d="M4475 4056 c-25 -16 -170 -93 -520 -272 -148 -76 -369 -189 -490
-251 -121 -62 -298 -152 -392 -200 l-173 -88 0 -283 0 -282 35 -38 34 -37 148
76 c81 42 256 131 388 199 132 67 317 162 410 210 276 142 508 261 700 360 99
51 184 96 189 101 13 12 -35 151 -91 262 -47 97 -110 200 -125 205 -5 2 -22
15 -37 28 -33 27 -48 30 -76 10z"/>
        <path d="M4675 3171 c-49 -27 -207 -108 -350 -181 -143 -73 -318 -163 -390
-200 -71 -37 -215 -111 -320 -165 -104 -54 -262 -135 -350 -180 -88 -45 -206
-106 -262 -134 l-103 -52 0 -300 0 -300 36 -44 c41 -48 42 -49 226 -65 336
-29 666 53 982 245 414 251 700 741 723 1238 5 106 4 119 -13 138 -19 21 -66
49 -81 48 -4 0 -48 -22 -98 -48z"/>
    </g>
</svg>
